Genre:Drama
Language:English  http://www.imdb.com/title/tt1510938/
Source:HDTV CtrlHD

A God-fearing ex-con (Samuel L. Jackson) saves a despondent college 
professor (Tommy Lee Jones) from throwing himself in front of a speeding 
subway train, and struggles to comprehend the suicidal man's unwavering despair 
during a series of intense philosophical debates.


Format : MPEG-4
Format profile : Base Media
Codec ID : isom
File size : 1.72 GiB
Duration : 1h 30mn
Overall bit rate : 2 711 Kbps


Video
Format settings, CABAC : Yes
Format settings, ReFrames : 3 frames
Codec ID : avc1
Codec ID/Info : Advanced Video Coding
Duration : 1h 30mn
Bit rate mode : Variable
Bit rate : 2 322 Kbps
Maximum bit rate : 7 246 Kbps
Width : 720 pixels
Height : 400 pixels
Display aspect ratio : 16:9
Frame rate mode : Constant
Frame rate : 23.976 fps
Color space : YUV
Chroma subsampling : 4:2:0
Bit depth : 8 bits
Scan type : Progressive
Bits/(Pixel*Frame) : 0.336
Stream size : 1.44 GiB (84%)
Writing library : x264

Audio
ID : 2
Format : AAC
Format/Info : Advanced Audio Codec
Format version : Version 4
Format profile : LC
Format settings, SBR : No
Codec ID : 40
Duration : 1h 30mn
Bit rate mode : Variable
Bit rate : 443 Kbps
Maximum bit rate : 519 Kbps
Channel(s) : 6 channels
Channel positions : Front: L C R, Side: L R, LFE
Sampling rate : 48.0 KHz
Stream size : 288 MiB (16%)
 
http://www.postimg.com/29000/28364.jpg 
http://www.postimg.com/29000/28365.jpg 
http://www.postimg.com/29000/28367.jpg 
http://www.postimg.com/29000/28369.jpg